<svg width="124" height="121" viewBox="0 0 124 121" fill="none" xmlns="http://www.w3.org/2000/svg">
<g clip-path="url(#clip0_30_122)">
<path d="M21.9583 0.0124054H102.042C114.183 0.0124054 124 9.82907 124 21.9707V98.9541C124 111.096 114.183 120.912 102.042 120.912H21.9583C9.81667 120.912 0 111.096 0 98.9541V21.9707C0 9.82907 9.81667 0.0124054 21.9583 0.0124054Z" fill="#330000"/>
<path d="M59.9333 72.3457H40.7133L36.7866 84.4874C36.6833 84.9524 36.2699 85.2624 35.8049 85.2107H26.0916C25.5233 85.2107 25.3683 84.9007 25.5233 84.2807L42.1599 36.3857C42.3149 35.8691 42.4699 35.3007 42.6766 34.6807C42.8833 33.5957 42.9866 32.4591 42.9866 31.3224C42.9349 31.0641 43.1416 30.8057 43.3999 30.7541H56.7816C57.1949 30.7541 57.4016 30.9091 57.4533 31.1674L76.3116 84.3841C76.4666 84.9524 76.3116 85.2107 75.7949 85.2107H64.9966C64.6349 85.2624 64.2733 85.0041 64.1699 84.6424L59.9333 72.3457ZM43.7099 61.8574H56.8333C56.5233 60.7724 56.1099 59.4807 55.6449 58.1374C55.1799 56.7424 54.7149 55.2441 54.2499 53.6941C53.7333 52.0924 53.2683 50.5424 52.7516 48.9407C52.2349 47.3391 51.7699 45.8407 51.3566 44.3424C50.9433 42.8957 50.5816 41.5524 50.2199 40.3124H50.1166C49.6516 42.5341 49.0833 44.7557 48.3599 46.9774C47.5849 49.4574 46.8099 52.0407 45.9833 54.6241C45.2599 57.2591 44.4849 59.6874 43.7099 61.8574ZM87.8333 39.7957C86.1283 39.8474 84.4749 39.1757 83.2349 37.9874C82.0466 36.6957 81.4266 34.9907 81.4783 33.2341C81.4266 31.4774 82.0983 29.8241 83.3383 28.6357C84.5783 27.4474 86.2316 26.8274 87.9366 26.8274C89.9516 26.8274 91.5016 27.4474 92.6383 28.6357C93.7749 29.8757 94.3949 31.5291 94.3433 33.2341C94.3949 34.9907 93.7749 36.6957 92.5349 37.9874C91.3466 39.2274 89.5899 39.8991 87.8333 39.7957ZM82.0466 84.6424V44.8591C82.0466 44.3424 82.2533 44.1357 82.7183 44.1357H92.9483C93.4133 44.1357 93.6199 44.3941 93.6199 44.8591V84.6424C93.6199 85.2107 93.4133 85.4691 92.9483 85.4691H82.8216C82.3049 85.4691 82.0466 85.1591 82.0466 84.6424Z" fill="#FF9A00"/>
</g>
<defs>
<clipPath id="clip0_30_122">
<rect width="124" height="120.925" fill="white"/>
</clipPath>
</defs>
</svg>
