<svg width="37" height="38" viewBox="0 0 37 38" fill="none" xmlns="http://www.w3.org/2000/svg">
<path d="M34.09 14.41C35.29 12.43 32.89 9.56003 30.67 10.99C30.65 11 30.63 11.01 30.62 11.02C30.75 10.9 30.87 10.78 30.99 10.66C33.04 8.72004 30.39 5.23003 27.96 6.73003C26.44 7.67003 24.94 8.65003 23.45 9.63003C24.68 8.44003 25.92 7.26003 27.19 6.11003C29.36 4.15003 26.6 0.880033 24.16 2.18003C23.58 2.49003 23.01 2.83003 22.44 3.15003C22.8 1.31003 20.77 -0.429969 18.73 0.510031C13.22 3.05003 8.15002 6.43004 3.63002 10.48C1.67002 12.23 3.67002 14.9 5.77002 14.66C4.26002 16.47 2.79003 18.32 1.40003 20.22C-0.00997207 22.15 2.33003 24.37 4.26003 23.87C3.82003 24.45 3.38002 25.02 2.95002 25.61C2.22002 26.6 2.69002 28.16 3.59002 28.84C4.62002 29.61 5.92003 29.49 6.87003 28.64C7.14003 28.4 7.42003 28.17 7.69003 27.93C7.24003 28.46 6.78003 28.97 6.33003 29.5C5.46003 30.53 5.32003 32.02 6.33003 33.04C7.14003 33.85 8.48003 33.99 9.43003 33.39C9.56003 34.01 9.90003 34.59 10.37 34.94C11.34 35.66 12.39 35.56 13.32 34.97C13.25 36.8 15.29 38.68 17.03 37.36C18.06 36.58 19.08 35.8 20.11 35.03C20.8 36.34 22.59 37.06 24.05 35.74C26.33 33.67 28.75 31.82 31.35 30.17C32.68 29.32 32.75 27.85 32.15 26.78L34.67 23.99C35.5 23.07 35.66 21.71 34.87 20.71C34.72 20.52 34.53 20.35 34.32 20.21C34.87 19.7 35.43 19.19 35.98 18.68C37.73 17.06 36.09 14.33 34.09 14.4V14.41Z" fill="url(#paint0_linear_16_104)"/>
<path d="M19.6602 21.54C19.6602 21.99 19.5702 22.38 19.3902 22.71C19.2102 23.05 18.9702 23.33 18.6602 23.56C18.3502 23.79 17.9902 23.96 17.5802 24.08C17.1702 24.2 16.7302 24.26 16.2702 24.26H11.1802V13.72H16.8202C17.1902 13.72 17.5202 13.8 17.8102 13.96C18.1102 14.12 18.3602 14.32 18.5702 14.58C18.7802 14.83 18.9402 15.12 19.0502 15.44C19.1602 15.76 19.2202 16.09 19.2202 16.41C19.2202 16.92 19.0902 17.41 18.8302 17.86C18.5702 18.31 18.2002 18.64 17.7002 18.86C18.3002 19.04 18.7802 19.36 19.1302 19.82C19.4802 20.28 19.6602 20.86 19.6602 21.55V21.54ZM13.2202 15.47V18.13H15.9502C16.3002 18.13 16.5902 18.01 16.8302 17.77C17.0702 17.53 17.1902 17.21 17.1902 16.79C17.1902 16.37 17.0802 16.06 16.8602 15.83C16.6402 15.59 16.3602 15.47 16.0402 15.47H13.2202ZM17.6002 21.15C17.6002 20.96 17.5702 20.78 17.5002 20.61C17.4402 20.44 17.3502 20.29 17.2402 20.16C17.1302 20.03 17.0002 19.93 16.8502 19.86C16.7002 19.79 16.5402 19.75 16.3602 19.75H13.2102V22.52H16.2502C16.4402 22.52 16.6102 22.49 16.7802 22.42C16.9402 22.35 17.0802 22.25 17.2002 22.13C17.3202 22.01 17.4102 21.86 17.4802 21.69C17.5502 21.52 17.5802 21.34 17.5802 21.16L17.6002 21.15Z" fill="white"/>
<path d="M24.0901 24.26C23.4901 24.26 22.9401 24.16 22.4501 23.95C21.4801 23.54 20.8001 22.85 20.4001 21.87C20.2101 21.4 20.1201 20.91 20.1201 20.39C20.1201 19.87 20.2101 19.35 20.3901 18.87C20.7801 17.88 21.4601 17.18 22.4401 16.76C22.9301 16.55 23.4901 16.44 24.1001 16.44C24.7101 16.44 25.2601 16.55 25.7501 16.76C27.3401 17.45 28.0901 19 28.0201 20.67C28.0201 20.78 28.0001 20.88 27.9801 20.96H22.1601C22.1901 21.26 22.2601 21.52 22.3801 21.75C22.5001 21.98 22.6401 22.18 22.8301 22.34C23.0101 22.5 23.2201 22.63 23.4501 22.71C23.6801 22.8 23.9201 22.84 24.1701 22.84C24.5501 22.84 24.9201 22.75 25.2601 22.56C25.6001 22.37 25.8301 22.13 25.9601 21.82L27.6101 22.28C27.3301 22.86 26.8901 23.33 26.2801 23.7C25.6701 24.07 24.9501 24.25 24.1001 24.25L24.0901 24.26ZM26.0501 19.72C26.0001 19.15 25.7901 18.7 25.4201 18.36C25.0501 18.02 24.6001 17.85 24.0801 17.85C23.8201 17.85 23.5801 17.9 23.3501 17.99C23.1201 18.08 22.9301 18.21 22.7501 18.37C22.5801 18.53 22.4401 18.73 22.3301 18.96C22.2201 19.19 22.1501 19.44 22.1401 19.72H26.0501Z" fill="white"/>
<path d="M21.5601 14.22H26.6001V15.47H21.5601V14.22Z" fill="white"/>
<defs>
<linearGradient id="paint0_linear_16_104" x1="6.50003" y1="7.62003" x2="30.26" y2="31.38" gradientUnits="userSpaceOnUse">
<stop stop-color="#006EF5"/>
<stop offset="0.78" stop-color="#2130AE"/>
<stop offset="1" stop-color="#2B1E99"/>
</linearGradient>
</defs>
</svg>
