<svg width="36" height="39" viewBox="0 0 36 39" fill="none" xmlns="http://www.w3.org/2000/svg">
<path d="M33.2302 14.62C34.4302 12.64 32.0302 9.76999 29.8102 11.2C29.7902 11.21 29.7702 11.22 29.7602 11.23C29.8902 11.11 30.0102 10.99 30.1302 10.87C32.1802 8.92999 29.5302 5.43999 27.1002 6.93999C25.5802 7.87999 24.0802 8.85999 22.5902 9.83999C23.8202 8.64999 25.0602 7.46999 26.3302 6.31999C28.5002 4.35999 25.7402 1.08999 23.3002 2.38999C22.7202 2.69999 22.1502 3.03999 21.5802 3.35999C21.9402 1.51999 19.9102 -0.220008 17.8702 0.719992C12.3602 3.25999 7.29016 6.63999 2.77016 10.69C0.810164 12.44 2.81016 15.11 4.91016 14.87C3.40016 16.68 1.93016 18.53 0.540165 20.43C-0.869835 22.36 1.47017 24.58 3.40017 24.08C2.96017 24.66 2.52016 25.23 2.09016 25.82C1.36016 26.81 1.83016 28.37 2.73016 29.04C3.76016 29.81 5.06017 29.69 6.01017 28.84C6.28017 28.6 6.56017 28.37 6.83017 28.13C6.38017 28.66 5.92016 29.17 5.47016 29.7C4.60016 30.73 4.46016 32.22 5.47016 33.24C6.28016 34.05 7.62016 34.19 8.57016 33.59C8.70016 34.21 9.04017 34.79 9.51017 35.14C10.4802 35.86 11.5302 35.76 12.4602 35.17C12.3902 37 14.4302 38.88 16.1702 37.56C17.2002 36.78 18.2202 36 19.2502 35.23C19.9402 36.54 21.7302 37.26 23.1902 35.94C25.4702 33.87 27.8902 32.02 30.4902 30.37C31.8202 29.52 31.8902 28.05 31.2902 26.98L33.8102 24.19C34.6402 23.27 34.8002 21.91 34.0102 20.91C33.8602 20.72 33.6702 20.55 33.4602 20.41C34.0102 19.9 34.5702 19.39 35.1202 18.88C36.8702 17.26 35.2302 14.53 33.2302 14.6V14.62Z" fill="url(#paint0_linear_16_114)"/>
<path d="M17.9803 10.8C13.4403 10.8 9.76025 14.49 9.76025 19.01C9.76025 23.53 13.4503 27.22 17.9803 27.22C22.5103 27.22 26.2103 23.54 26.2103 19.01C26.2103 14.48 22.5203 10.8 17.9803 10.8ZM23.3903 14.68C24.3303 15.84 24.9002 17.31 24.9202 18.91C24.6102 18.85 23.2903 18.6 21.7103 18.6C21.2003 18.6 20.6602 18.63 20.1302 18.69C20.0802 18.58 20.0402 18.47 19.9902 18.36C19.8502 18.03 19.7003 17.71 19.5403 17.39C21.9703 16.39 23.1403 15 23.3903 14.68ZM17.9803 12.09C19.7303 12.09 21.3302 12.74 22.5602 13.81C22.3702 14.07 21.3203 15.39 18.9703 16.27C17.8803 14.29 16.7003 12.64 16.4103 12.26C16.9103 12.14 17.4403 12.08 17.9803 12.08V12.09ZM15.0003 12.76C15.2403 13.09 16.4303 14.75 17.5403 16.72C14.5503 17.51 11.9003 17.56 11.2603 17.56H11.1903C11.6503 15.44 13.0803 13.68 15.0003 12.77V12.76ZM11.0403 19.03C11.0403 18.97 11.0403 18.92 11.0403 18.86C11.0803 18.86 11.1403 18.86 11.2203 18.86C12.0803 18.86 15.0803 18.79 18.1603 17.87C18.3503 18.24 18.5303 18.61 18.6903 18.98C18.6103 19 18.5403 19.02 18.4603 19.05C14.9903 20.17 13.0803 23.14 12.7803 23.63C11.6903 22.4 11.0303 20.79 11.0303 19.03H11.0403ZM17.9902 25.97C16.4002 25.97 14.9303 25.43 13.7503 24.53C13.9503 24.14 15.3902 21.55 19.2002 20.22C20.1502 22.7 20.5602 24.79 20.6702 25.44C19.8402 25.79 18.9402 25.98 17.9902 25.98V25.97ZM21.9303 24.75C21.8403 24.22 21.4603 22.26 20.6003 19.88C21.0803 19.8 21.5603 19.77 22.0003 19.77C23.4503 19.77 24.5903 20.09 24.8503 20.17C24.5403 22.06 23.4503 23.7 21.9303 24.75Z" fill="white"/>
<defs>
<linearGradient id="paint0_linear_16_114" x1="5.63016" y1="7.81999" x2="29.3902" y2="31.59" gradientUnits="userSpaceOnUse">
<stop stop-color="#F26798"/>
<stop offset="0.87" stop-color="#C72092"/>
<stop offset="1" stop-color="#C11592"/>
</linearGradient>
</defs>
</svg>
