<svg width="83" height="124" viewBox="0 0 83 124" fill="none" xmlns="http://www.w3.org/2000/svg">
<g clip-path="url(#clip0_30_127)">
<mask id="mask0_30_127" style="mask-type:luminance" maskUnits="userSpaceOnUse" x="0" y="0" width="83" height="124">
<path d="M82.6667 0H0V124H82.6667V0Z" fill="white"/>
</mask>
<g mask="url(#mask0_30_127)">
<path d="M41.3333 62C41.3333 56.5188 43.5106 51.2622 47.3864 47.3865C51.2622 43.5107 56.5187 41.3333 61.9999 41.3333C67.4812 41.3333 72.7377 43.5107 76.6134 47.3865C80.4892 51.2622 82.6666 56.5188 82.6666 62C82.6666 67.4812 80.4892 72.7377 76.6134 76.6135C72.7377 80.4893 67.4812 82.6667 61.9999 82.6667C56.5187 82.6667 51.2622 80.4893 47.3864 76.6135C43.5106 72.7377 41.3333 67.4812 41.3333 62Z" fill="#1ABCFE"/>
<path d="M0 103.333C0 97.8521 2.17737 92.5956 6.05314 88.7198C9.92888 84.8441 15.1855 82.6667 20.6667 82.6667H41.3333V103.333C41.3333 108.815 39.1559 114.071 35.2802 117.947C31.4044 121.823 26.1479 124 20.6667 124C15.1855 124 9.92888 121.823 6.05314 117.947C2.17737 114.071 0 108.815 0 103.333Z" fill="#0ACF83"/>
<path d="M41.3333 0V41.3333H61.9999C67.4812 41.3333 72.7377 39.1559 76.6134 35.2802C80.4892 31.4044 82.6666 26.1479 82.6666 20.6667C82.6666 15.1855 80.4892 9.92888 76.6134 6.05314C72.7377 2.17737 67.4812 0 61.9999 0H41.3333Z" fill="#FF7262"/>
<path d="M0 20.6667C0 26.1479 2.17737 31.4044 6.05314 35.2802C9.92888 39.1559 15.1855 41.3333 20.6667 41.3333H41.3333V0H20.6667C15.1855 0 9.92888 2.17737 6.05314 6.05314C2.17737 9.92888 0 15.1855 0 20.6667Z" fill="#F24E1E"/>
<path d="M0 62C0 67.4812 2.17737 72.7377 6.05314 76.6135C9.92888 80.4893 15.1855 82.6667 20.6667 82.6667H41.3333V41.3333H20.6667C15.1855 41.3333 9.92888 43.5107 6.05314 47.3865C2.17737 51.2622 0 56.5188 0 62Z" fill="#A259FF"/>
</g>
</g>
<defs>
<clipPath id="clip0_30_127">
<rect width="82.6667" height="124" fill="white"/>
</clipPath>
</defs>
</svg>
