<svg width="37" height="39" viewBox="0 0 37 39" fill="none" xmlns="http://www.w3.org/2000/svg">
<path d="M33.9201 14.96C35.1201 12.98 32.7201 10.11 30.5001 11.54C30.4801 11.55 30.4601 11.56 30.4501 11.57C30.5801 11.45 30.7001 11.33 30.8201 11.21C32.8701 9.27002 30.2201 5.78002 27.7901 7.28002C26.2701 8.22002 24.7701 9.20002 23.2801 10.18C24.5101 8.99002 25.7501 7.81002 27.0201 6.66002C29.1901 4.70002 26.4301 1.43002 23.9901 2.73002C23.4101 3.04002 22.8401 3.38002 22.2701 3.70002C22.6301 1.86002 20.6001 0.120019 18.5601 1.06002C13.0501 3.60002 7.9801 6.98002 3.4601 11.03C1.5001 12.78 3.5001 15.45 5.6001 15.21C4.0901 17.02 2.62011 18.87 1.23011 20.77C-0.179893 22.7 2.1601 24.92 4.0901 24.42C3.6501 25 3.2101 25.57 2.7801 26.16C2.0501 27.15 2.5201 28.71 3.4201 29.39C4.4501 30.16 5.7501 30.04 6.7001 29.19C6.9701 28.95 7.2501 28.72 7.5201 28.48C7.0701 29.01 6.61011 29.52 6.16011 30.05C5.29011 31.08 5.15011 32.57 6.16011 33.59C6.97011 34.4 8.31011 34.54 9.26011 33.94C9.39011 34.56 9.7301 35.14 10.2001 35.49C11.1701 36.21 12.2201 36.11 13.1501 35.52C13.0801 37.35 15.1201 39.23 16.8601 37.91C17.8901 37.13 18.9101 36.35 19.9401 35.58C20.6301 36.89 22.4201 37.61 23.8801 36.29C26.1601 34.22 28.5801 32.37 31.1801 30.72C32.5101 29.87 32.5801 28.4 31.9801 27.33L34.5001 24.54C35.3301 23.62 35.4901 22.26 34.7001 21.26C34.5501 21.07 34.3601 20.91 34.1501 20.76C34.7001 20.25 35.2601 19.74 35.8101 19.23C37.5601 17.61 35.9201 14.88 33.9201 14.95V14.96Z" fill="url(#paint0_linear_16_121)"/>
<path d="M23.2102 14.06C22.6502 14.06 22.2002 14.51 22.2002 15.07C22.2002 15.63 22.6502 16.08 23.2102 16.08C23.7702 16.08 24.2202 15.63 24.2202 15.07C24.2202 14.51 23.7702 14.06 23.2102 14.06Z" fill="white"/>
<path d="M18.74 15.35C16.41 15.35 14.52 17.24 14.52 19.57C14.52 21.9 16.41 23.79 18.74 23.79C21.07 23.79 22.96 21.9 22.96 19.57C22.96 17.24 21.07 15.35 18.74 15.35ZM18.74 22.28C17.25 22.28 16.04 21.07 16.04 19.58C16.04 18.09 17.25 16.88 18.74 16.88C20.23 16.88 21.44 18.09 21.44 19.58C21.44 21.07 20.23 22.28 18.74 22.28Z" fill="white"/>
<path d="M22.0901 28.14H15.2501C12.4101 28.14 10.1001 25.83 10.1001 22.99V16.15C10.1001 13.31 12.4101 11 15.2501 11H22.0901C24.9301 11 27.2401 13.31 27.2401 16.15V22.99C27.2401 25.83 24.9301 28.14 22.0901 28.14ZM15.2501 12.61C13.3001 12.61 11.7101 14.2 11.7101 16.15V22.99C11.7101 24.94 13.3001 26.53 15.2501 26.53H22.0901C24.0401 26.53 25.6301 24.94 25.6301 22.99V16.15C25.6301 14.2 24.0401 12.61 22.0901 12.61H15.2501Z" fill="white"/>
<defs>
<linearGradient id="paint0_linear_16_121" x1="6.32011" y1="8.16002" x2="30.0801" y2="31.93" gradientUnits="userSpaceOnUse">
<stop stop-color="#FBE18A"/>
<stop offset="0.21" stop-color="#FCBB45"/>
<stop offset="0.38" stop-color="#F75274"/>
<stop offset="0.52" stop-color="#D53692"/>
<stop offset="0.74" stop-color="#8F39CE"/>
<stop offset="1" stop-color="#5B4FE9"/>
</linearGradient>
</defs>
</svg>
