<svg width="37" height="38" viewBox="0 0 37 38" fill="none" xmlns="http://www.w3.org/2000/svg">
<path d="M33.4201 14.52C34.6201 12.54 32.2201 9.67001 30.0001 11.1C29.9801 11.11 29.9601 11.12 29.9501 11.13C30.0801 11.01 30.2001 10.89 30.3201 10.77C32.3701 8.83001 29.7201 5.34001 27.2901 6.84001C25.7701 7.78001 24.2701 8.76001 22.7801 9.74001C24.0101 8.55001 25.2501 7.37001 26.5201 6.22001C28.6901 4.26001 25.9301 0.990014 23.4901 2.29001C22.9101 2.60001 22.3401 2.94002 21.7701 3.26002C22.1301 1.42002 20.1001 -0.319984 18.0601 0.620016C12.5501 3.16002 7.48011 6.54001 2.96011 10.59C1.00011 12.34 3.0001 15.01 5.1001 14.77C3.5901 16.58 2.12011 18.43 0.730106 20.33C-0.679894 22.26 1.66011 24.48 3.59011 23.98C3.15011 24.56 2.71011 25.13 2.28011 25.72C1.55011 26.71 2.0201 28.27 2.9201 28.95C3.9501 29.72 5.25011 29.6 6.20011 28.75C6.47011 28.51 6.75011 28.28 7.02011 28.04C6.57011 28.57 6.11011 29.08 5.66011 29.61C4.79011 30.64 4.65011 32.13 5.66011 33.15C6.47011 33.96 7.81011 34.1 8.76011 33.49C8.89011 34.11 9.23011 34.69 9.70011 35.04C10.6701 35.76 11.7201 35.66 12.6501 35.07C12.5801 36.9 14.6201 38.78 16.3601 37.46C17.3901 36.68 18.4101 35.9 19.4401 35.13C20.1301 36.44 21.9201 37.16 23.3801 35.84C25.6601 33.77 28.0801 31.92 30.6801 30.27C32.0101 29.42 32.0801 27.95 31.4801 26.88L34.0001 24.09C34.8301 23.17 34.9901 21.81 34.2001 20.81C34.0501 20.62 33.8601 20.45 33.6501 20.31C34.2001 19.8 34.7601 19.29 35.3101 18.78C37.0601 17.16 35.4201 14.43 33.4201 14.5V14.52Z" fill="url(#paint0_linear_16_130)"/>
<path d="M12.0403 16.3H14.8703V25.4H12.0403V16.3ZM13.4603 11.78C14.3703 11.78 15.1003 12.51 15.1003 13.42C15.1003 14.33 14.3703 15.06 13.4603 15.06C12.5503 15.06 11.8203 14.32 11.8203 13.42C11.8203 12.52 12.5503 11.78 13.4603 11.78Z" fill="white"/>
<path d="M16.6399 16.3H19.3499V17.54H19.3899C19.7699 16.82 20.6899 16.07 22.0699 16.07C24.9299 16.07 25.4599 17.95 25.4599 20.4V25.39H22.6299V20.97C22.6299 19.91 22.6099 18.56 21.1599 18.56C19.7099 18.56 19.4599 19.71 19.4599 20.9V25.4H16.6299V16.3H16.6399Z" fill="white"/>
<defs>
<linearGradient id="paint0_linear_16_130" x1="5.82011" y1="7.72002" x2="29.5801" y2="31.48" gradientUnits="userSpaceOnUse">
<stop stop-color="#007AB5"/>
<stop offset="1" stop-color="#0046E5"/>
</linearGradient>
</defs>
</svg>
