<svg width="124" height="121" viewBox="0 0 124 121" fill="none" xmlns="http://www.w3.org/2000/svg">
<g clip-path="url(#clip0_30_124)">
<path d="M21.9563 0.00997925H102.044C114.183 0.00997925 124 9.82745 124 21.9663V98.9585C124 111.097 114.183 120.915 102.044 120.915H21.9563C9.81747 120.915 0 111.097 0 98.9585V21.9663C0 9.82745 9.81747 0.00997925 21.9563 0.00997925Z" fill="#001E36"/>
<path d="M43.5258 85.4655H14.025C13.493 85.4655 13.2996 85.1753 13.2996 84.5466V31.7354C13.2996 31.2034 13.493 31.01 13.9766 31.01H23.117C23.4556 31.01 23.649 31.2034 23.649 31.5903V74.971H45.1217C45.6053 74.971 45.7504 75.2128 45.6537 75.6964L44.2996 84.6917C44.2512 84.9819 44.1545 85.2237 44.0094 85.3204C43.8643 85.4171 43.6709 85.4655 43.5258 85.4655ZM50.8768 44.1161H59.0499C59.5336 44.1161 59.8237 44.3579 60.0172 44.9382C60.1623 45.2768 60.3074 45.712 60.3557 46.1473C60.4524 46.6792 60.5008 47.2112 60.5492 47.7432C60.5975 48.3235 60.5975 48.9523 60.5975 49.581C61.9517 47.8399 63.6443 46.2924 65.5788 45.1317C67.6584 43.8743 70.0765 43.1972 72.4946 43.2939C72.9782 43.2939 73.1716 43.5357 73.1716 44.0193V54.0786C73.1716 54.5139 72.9298 54.659 72.4462 54.659C70.8019 54.5622 69.1576 54.659 67.5616 54.9975C66.2075 55.2877 64.9501 55.7713 63.6927 56.4C62.7738 56.8836 61.9033 57.5607 61.1779 58.3345V84.6917C61.1779 85.2237 60.9844 85.4172 60.5492 85.4172H51.5538C51.0219 85.4172 50.8284 85.1753 50.8284 84.595V55.9647C50.8284 54.7073 50.8284 53.4499 50.7801 52.0958C50.7801 50.7416 50.7317 49.3875 50.6833 48.0817C50.635 46.9211 50.5382 45.8087 50.3932 44.648C50.3932 44.503 50.3932 44.3579 50.4899 44.1644C50.635 44.1161 50.7317 44.0677 50.8768 44.1161ZM109.83 36.4749C108.766 35.9913 107.557 35.7494 106.348 35.6044C104.607 35.4109 102.817 35.3142 101.076 35.3142C95.9985 35.3142 91.5492 36.3782 87.922 38.5061C84.2949 40.634 81.2964 43.7775 79.362 47.5498C77.3308 51.3704 76.3635 55.9164 76.3635 60.9944C76.3152 64.0412 76.7021 67.088 77.5242 70.0864C78.2496 72.6012 79.3136 74.971 80.8128 77.1473C82.2153 79.1785 83.908 80.8711 85.8908 82.2736C87.8737 83.6761 90.0983 84.7401 92.468 85.3688C94.8861 86.0459 97.4977 86.3844 100.013 86.3844C101.802 86.3844 103.591 86.2877 105.332 86.0459C106.783 85.9008 108.186 85.5139 109.54 85.0303C110.072 84.7884 110.362 84.2565 110.314 83.6278V75.9382C110.362 75.6964 110.265 75.3579 110.072 75.1644C109.927 75.0677 109.637 74.9226 109.25 75.2128C108.089 75.648 106.88 75.9382 105.622 76.0833C104.123 76.2284 102.624 76.2767 101.125 76.2767C99.7707 76.2767 98.3682 76.0833 97.1108 75.6964C95.7083 75.3579 94.4025 74.7775 93.1935 74.0521C91.8877 73.2783 90.8237 72.2627 89.9532 71.0537C88.986 69.6995 88.2122 68.2003 87.6802 66.6044C87.0999 64.6215 86.8097 62.6387 86.8581 60.5591C86.8097 57.7058 87.39 54.8524 88.5507 52.2892C89.6147 50.0646 91.3074 48.1785 93.3869 46.8727C95.6599 45.5186 98.2715 44.8415 100.931 44.8899C102.527 44.8899 104.172 44.9866 105.768 45.3251C107.073 45.5186 108.282 45.9538 109.491 46.5825C109.685 46.6792 109.975 46.6792 110.169 46.5825C110.362 46.3891 110.507 46.0989 110.459 45.8087V37.7323C110.459 37.2003 110.265 36.7651 109.83 36.4749Z" fill="#31A8FF"/>
</g>
<defs>
<clipPath id="clip0_30_124">
<rect width="124" height="120.925" fill="white"/>
</clipPath>
</defs>
</svg>
