<svg width="124" height="121" viewBox="0 0 124 121" fill="none" xmlns="http://www.w3.org/2000/svg">
<g clip-path="url(#clip0_30_121)">
<path d="M21.9583 0.0123901H102.042C114.183 0.0123901 124 9.82906 124 21.9707V98.9541C124 111.096 114.183 120.912 102.042 120.912H21.9583C9.81667 120.912 0 111.096 0 98.9541V21.9707C0 9.82906 9.81667 0.0123901 21.9583 0.0123901Z" fill="#001E36"/>
<path d="M27.9 84.7974V31.6324C27.9 31.2707 28.055 31.0641 28.4167 31.0641C29.295 31.0641 30.1217 31.0641 31.31 31.0124C32.55 30.9607 33.8417 30.9607 35.2367 30.9091C36.6317 30.8574 38.13 30.8574 39.7317 30.8057C41.3334 30.7541 42.8834 30.7541 44.4334 30.7541C48.67 30.7541 52.1834 31.2707 55.0767 32.3557C57.66 33.2341 60.0367 34.6807 62 36.5924C63.6534 38.2457 64.945 40.2607 65.7717 42.4824C66.5467 44.6524 66.96 46.8741 66.96 49.1991C66.96 53.6424 65.9267 57.3107 63.86 60.2041C61.7934 63.0974 58.9 65.2674 55.5417 66.5074C52.0284 67.7991 48.1534 68.2641 43.9167 68.2641C42.6767 68.2641 41.85 68.2641 41.3334 68.2124C40.8167 68.1607 40.0934 68.1607 39.1117 68.1607V84.7457C39.1634 85.1074 38.905 85.4174 38.5434 85.4691H28.52C28.1067 85.4691 27.9 85.2624 27.9 84.7974ZM39.1634 41.0357V58.3957C39.8867 58.4474 40.5584 58.4991 41.1784 58.4991H43.9167C45.9317 58.4991 47.9467 58.1891 49.8584 57.5691C51.5117 57.1041 52.9584 56.1224 54.095 54.8307C55.18 53.5391 55.6967 51.7824 55.6967 49.5091C55.7484 47.9074 55.335 46.3057 54.5084 44.9107C53.63 43.5674 52.39 42.5341 50.8917 41.9657C48.98 41.1907 46.9134 40.8807 44.795 40.9324C43.4517 40.9324 42.2634 40.9324 41.2817 40.9841C40.2484 40.9324 39.525 40.9841 39.1634 41.0357ZM99.2 55.2441C97.65 54.4174 95.9967 53.8491 94.24 53.4874C92.3284 53.0741 90.4167 52.8157 88.4534 52.8157C87.42 52.7641 86.335 52.9191 85.3534 53.1774C84.6817 53.3324 84.1134 53.6941 83.7517 54.2107C83.4934 54.6241 83.3384 55.1407 83.3384 55.6057C83.3384 56.0707 83.545 56.5357 83.855 56.9491C84.32 57.5174 84.94 57.9824 85.6117 58.3441C86.8 58.9641 88.04 59.5324 89.28 60.0491C92.07 60.9791 94.7567 62.2707 97.2367 63.8207C98.9417 64.9057 100.337 66.3524 101.318 68.1091C102.145 69.7624 102.558 71.5707 102.507 73.4307C102.558 75.8591 101.835 78.2874 100.492 80.3024C99.045 82.3691 97.03 83.9707 94.705 84.9007C92.1734 85.9857 89.0734 86.5541 85.3534 86.5541C82.9767 86.5541 80.6517 86.3474 78.3267 85.8824C76.5184 85.5724 74.71 85.0041 73.0567 84.2291C72.695 84.0224 72.4367 83.6607 72.4884 83.2474V74.2574C72.4884 74.1024 72.54 73.8957 72.695 73.7924C72.85 73.6891 73.005 73.7407 73.16 73.8441C75.175 75.0324 77.2934 75.8591 79.5667 76.3757C81.53 76.8924 83.5967 77.1507 85.6634 77.1507C87.6267 77.1507 89.0217 76.8924 89.9517 76.4274C90.7784 76.0657 91.3467 75.1874 91.3467 74.2574C91.3467 73.5341 90.9334 72.8624 90.1067 72.1907C89.28 71.5191 87.575 70.7441 85.0434 69.7624C82.4084 68.8324 79.98 67.5924 77.7067 66.0424C76.105 64.9057 74.7617 63.4074 73.78 61.6507C72.9534 59.9974 72.54 58.1891 72.5917 56.3807C72.5917 54.1591 73.2117 52.0407 74.3484 50.1291C75.64 48.0624 77.5517 46.4091 79.7734 45.3757C82.2017 44.1357 85.25 43.5674 88.9184 43.5674C91.0367 43.5674 93.2067 43.7224 95.325 44.0324C96.875 44.2391 98.3734 44.6524 99.7684 45.2207C99.975 45.2724 100.182 45.4791 100.285 45.6857C100.337 45.8924 100.388 46.0991 100.388 46.3057V54.7274C100.388 54.9341 100.285 55.1407 100.13 55.2441C99.665 55.3474 99.4067 55.3474 99.2 55.2441Z" fill="#31A8FF"/>
</g>
<defs>
<clipPath id="clip0_30_121">
<rect width="124" height="120.925" fill="white"/>
</clipPath>
</defs>
</svg>
