<svg width="124" height="121" viewBox="0 0 124 121" fill="none" xmlns="http://www.w3.org/2000/svg">
<g clip-path="url(#clip0_30_120)">
<path d="M21.9583 0.0124054H102.042C114.183 0.0124054 124 9.82907 124 21.9707V98.9541C124 111.096 114.183 120.912 102.042 120.912H21.9583C9.81667 120.912 0 111.096 0 98.9541V21.9707C0 9.82907 9.81667 0.0124054 21.9583 0.0124054Z" fill="#470137"/>
<path d="M65.2034 31.7874L49.7034 57.3624L66.2367 84.4874C66.34 84.6941 66.3917 84.9007 66.34 85.1074C66.2884 85.3141 66.0817 85.1591 65.7717 85.2107H53.94C53.1134 85.2107 52.545 85.1591 52.1834 84.6424C51.0984 82.4724 49.9617 80.3541 48.8767 78.1841C47.7917 76.0657 46.6034 73.8957 45.3634 71.6741C44.1234 69.4524 42.8834 67.2307 41.6434 64.9574H41.54C40.455 67.1791 39.2667 69.4007 38.0784 71.6224C36.89 73.8441 35.7017 76.0657 34.565 78.2357C33.3767 80.4057 32.1884 82.6274 31 84.7457C30.7934 85.2624 30.38 85.3141 29.8117 85.3141H18.445C18.2384 85.3141 18.0834 85.4174 18.0834 85.1591C18.0317 84.9524 18.0834 84.7457 18.1867 84.5907L34.255 58.2407L18.6 31.7357C18.445 31.5291 18.3934 31.3224 18.4967 31.2191C18.6 31.0641 18.8067 31.0124 19.0134 31.0124H30.7417C31 31.0124 31.2584 31.0641 31.465 31.1157C31.6717 31.2191 31.8267 31.3741 31.9817 31.5807C32.9634 33.8024 34.1 36.0241 35.2884 38.2457C36.5284 40.4674 37.7167 42.6374 39.0084 44.8074C40.2484 46.9774 41.385 49.1474 42.47 51.3691H42.5734C43.6584 49.0957 44.795 46.8741 45.9317 44.7041C47.0684 42.5341 48.2567 40.3641 49.445 38.1941C50.6334 36.0241 51.77 33.8024 52.9067 31.6841C52.9584 31.4774 53.0617 31.2707 53.2167 31.1674C53.4234 31.0641 53.63 31.0124 53.8884 31.0641H64.79C65.0484 31.0124 65.3067 31.1674 65.3584 31.4257C65.41 31.4774 65.3067 31.6841 65.2034 31.7874ZM89.0734 86.2957C85.25 86.3474 81.4267 85.5724 77.965 83.9707C74.71 82.4724 72.0234 79.9924 70.1634 76.9441C68.2517 73.7924 67.3217 69.8657 67.3217 65.1641C67.27 61.3407 68.2517 57.5691 70.1634 54.2624C72.1267 50.9041 74.9684 48.1141 78.3784 46.2541C81.995 44.2391 86.335 43.2574 91.45 43.2574C91.7084 43.2574 92.07 43.2574 92.535 43.3091C93 43.3607 93.5167 43.3607 94.1367 43.4124V27.0857C94.1367 26.7241 94.2917 26.5174 94.6534 26.5174H105.142C105.4 26.4657 105.607 26.6724 105.658 26.8791V76.1691C105.658 77.0991 105.71 78.1324 105.762 79.2691C105.865 80.3541 105.917 81.3874 105.968 82.2657C105.968 82.6274 105.813 82.9374 105.452 83.0924C102.765 84.2291 99.9234 85.0557 97.03 85.5724C94.395 86.0374 91.76 86.2957 89.0734 86.2957ZM94.1367 75.9624V53.2291C93.6717 53.1257 93.2067 53.0224 92.7417 52.9707C92.1734 52.9191 91.605 52.8674 91.0367 52.8674C89.0217 52.8674 87.0067 53.2807 85.1984 54.2107C83.4417 55.0891 81.9434 56.3807 80.8067 58.0341C79.67 59.6874 79.1017 61.9091 79.1017 64.5957C79.05 66.4041 79.36 68.2124 79.98 69.9174C80.4967 71.3124 81.2717 72.5524 82.305 73.5857C83.2867 74.5157 84.475 75.2391 85.8184 75.6524C87.2134 76.1174 88.66 76.3241 90.1067 76.3241C90.8817 76.3241 91.605 76.2724 92.2767 76.2207C92.9484 76.2724 93.5167 76.1691 94.1367 75.9624Z" fill="#FF61F6"/>
</g>
<defs>
<clipPath id="clip0_30_120">
<rect width="124" height="120.925" fill="white"/>
</clipPath>
</defs>
</svg>
