<svg width="30" height="30" viewBox="0 0 30 30" fill="none" xmlns="http://www.w3.org/2000/svg">
<g clip-path="url(#clip0_21_2)">
<path d="M29.4312 15C29.4312 7.02981 22.9701 0.568726 15 0.568726C7.02981 0.568726 0.568726 7.02981 0.568726 15C0.568726 22.9701 7.02981 29.4312 15 29.4312C22.9701 29.4312 29.4312 22.9701 29.4312 15Z" stroke="#222221" stroke-width="1.5" stroke-miterlimit="10"/>
<path d="M12.8463 19.7851C13.2862 19.6941 13.6653 19.5272 13.9914 19.277C14.2796 19.0646 14.5147 18.7992 14.7043 18.4807C15.0076 18.003 15.1517 17.4645 15.1517 16.8654C15.1517 16.2664 15.0228 15.7886 14.7574 15.3867C14.4919 14.9772 14.1052 14.6814 13.5895 14.4918C13.9308 14.3174 14.1886 14.1278 14.363 13.9155C14.6739 13.5439 14.8332 13.0434 14.8332 12.4291C14.8332 11.8149 14.6815 11.3144 14.3706 10.8897C13.8549 10.192 12.9828 9.83562 11.7543 9.81287H6.87061V19.9216H11.4207C11.9363 19.9216 12.4141 19.8761 12.8463 19.7851ZM8.88021 11.5722H11.0794C11.5647 11.5722 11.9591 11.6253 12.27 11.7315C12.634 11.8831 12.816 12.1941 12.816 12.6642C12.816 13.0889 12.6795 13.3847 12.4065 13.5515C12.1335 13.7183 11.7771 13.8017 11.3372 13.8017H8.88021V11.5722ZM8.88021 18.1698V15.4777H11.3676C11.7998 15.4777 12.1411 15.5383 12.3762 15.6521C12.8084 15.8493 13.0208 16.2057 13.0208 16.7365C13.0208 17.3584 12.8008 17.7755 12.3534 17.9954C12.1107 18.1167 11.7695 18.1698 11.3297 18.1698H8.87263H8.88021Z" fill="#222221"/>
<path d="M16.8655 19.2619C17.6239 19.8761 18.5035 20.1794 19.497 20.1794C20.7027 20.1794 21.6431 19.8154 22.3104 19.0874C22.7427 18.6324 22.9853 18.1774 23.0384 17.7376H21.044C20.9302 17.9575 20.7937 18.1243 20.6421 18.2533C20.3615 18.4808 20.0051 18.5945 19.5576 18.5945C19.1406 18.5945 18.7765 18.5035 18.4808 18.3139C17.9879 18.0106 17.73 17.4873 17.6997 16.7366H23.1446C23.1522 16.092 23.1294 15.5991 23.0839 15.2502C22.9929 14.6663 22.7958 14.1506 22.4848 13.7032C22.1436 13.2027 21.7113 12.8311 21.1957 12.596C20.6724 12.3609 20.0885 12.2472 19.4363 12.2472C18.3443 12.2472 17.4494 12.596 16.7669 13.2861C16.0844 13.9762 15.7356 14.9696 15.7356 16.2664C15.7356 17.6466 16.1148 18.6476 16.8731 19.2619H16.8655ZM18.2609 14.2947C18.5339 14.0141 18.9282 13.87 19.4287 13.87C19.8913 13.87 20.2781 14.0065 20.589 14.272C20.8999 14.5374 21.0743 14.9317 21.1122 15.455H17.7452C17.8135 14.9696 17.9879 14.5829 18.2685 14.2947H18.2609Z" fill="#222221"/>
<path d="M21.4914 10.4044H17.1006V11.4206H21.4914V10.4044Z" fill="#222221"/>
</g>
<defs>
<clipPath id="clip0_21_2">
<rect width="30" height="30" fill="white"/>
</clipPath>
</defs>
</svg>
