<svg width="30" height="30" viewBox="0 0 30 30" fill="none" xmlns="http://www.w3.org/2000/svg">
<g clip-path="url(#clip0_21_11)">
<path d="M15 29.4312C7.0298 29.4312 0.568726 22.9701 0.568726 15C0.568726 7.0298 7.0298 0.568726 15 0.568726C22.9701 0.568726 29.4312 7.0298 29.4312 15C29.4312 22.9701 22.9701 29.4312 15 29.4312Z" stroke="#222221" stroke-width="1.5" stroke-miterlimit="10"/>
<path fill-rule="evenodd" clip-rule="evenodd" d="M22.9095 14.5981C22.8033 10.4272 19.368 7.08289 15.144 7.08289C10.9201 7.08289 7.56063 10.3513 7.37862 14.4616C7.37862 14.5753 7.37862 14.6891 7.37862 14.8028C7.37862 16.2588 7.78813 17.6238 8.49339 18.7841L7.09045 22.9246L11.3978 21.5596C12.5126 22.1739 13.7942 22.5227 15.1516 22.5227C19.4438 22.5227 22.9246 19.0723 22.9246 14.8104C22.9246 14.7421 22.9246 14.6815 22.9246 14.6132L22.9095 14.5981ZM15.144 21.279C13.8169 21.279 12.5808 20.8847 11.5495 20.2022L9.03939 21.006L9.85082 18.5945C9.06973 17.5253 8.60714 16.2133 8.60714 14.7952C8.60714 14.5829 8.61472 14.3705 8.63747 14.1658C8.95597 10.8822 11.7543 8.3114 15.1365 8.3114C18.5187 8.3114 21.3852 10.9504 21.6506 14.2871C21.6658 14.454 21.6734 14.6208 21.6734 14.7952C21.6734 18.3746 18.7386 21.279 15.1365 21.279H15.144Z" fill="#222221"/>
<path fill-rule="evenodd" clip-rule="evenodd" d="M18.7082 16.3574C18.5187 16.2664 17.5783 15.8038 17.4039 15.7431C17.2295 15.6749 17.1006 15.6521 16.9716 15.8341C16.8427 16.0237 16.4787 16.4484 16.365 16.5697C16.2512 16.6986 16.145 16.7138 15.9479 16.6152C15.7583 16.5242 15.144 16.3271 14.416 15.6749C13.8549 15.1744 13.4681 14.5601 13.3543 14.3705C13.2482 14.181 13.3468 14.0824 13.4378 13.9838C13.5212 13.9004 13.6274 13.7639 13.7259 13.6501C13.7487 13.6198 13.7714 13.5894 13.7942 13.5591C13.8397 13.4909 13.87 13.4226 13.9155 13.3316C13.9838 13.2027 13.9459 13.0965 13.9004 12.9979C13.8549 12.9069 13.4681 11.9742 13.3088 11.595C13.1496 11.2158 12.9903 11.2841 12.8766 11.2841C12.7628 11.2841 12.6415 11.2689 12.5126 11.2689C12.3837 11.2689 12.1789 11.3144 12.0045 11.504C11.8301 11.6936 11.3372 12.1486 11.3372 13.0814C11.3372 13.3013 11.3751 13.5212 11.4357 13.7259C11.6253 14.3933 12.0424 14.9393 12.1182 15.0379C12.2093 15.1592 13.4378 17.1309 15.3715 17.8968C17.3129 18.6476 17.3129 18.3973 17.6617 18.367C18.0106 18.3367 18.7917 17.912 18.9433 17.4646C19.1026 17.0247 19.1026 16.6456 19.0571 16.5621C19.0116 16.4863 18.8827 16.4408 18.6931 16.3422L18.7082 16.3574Z" fill="#222221"/>
</g>
<defs>
<clipPath id="clip0_21_11">
<rect width="30" height="30" fill="white"/>
</clipPath>
</defs>
</svg>
