<svg width="30" height="30" viewBox="0 0 30 30" fill="none" xmlns="http://www.w3.org/2000/svg">
<g clip-path="url(#clip0_21_27)">
<path d="M29.4312 15C29.4312 7.02981 22.9701 0.568726 15 0.568726C7.02981 0.568726 0.568726 7.02981 0.568726 15C0.568726 22.9701 7.02981 29.4312 15 29.4312C22.9701 29.4312 29.4312 22.9701 29.4312 15Z" stroke="#222221" stroke-width="1.5" stroke-miterlimit="10"/>
<path d="M15 5.80127C9.91907 5.80127 5.80127 9.91907 5.80127 15C5.80127 20.0808 9.91907 24.1986 15 24.1986C20.0808 24.1986 24.1986 20.0808 24.1986 15C24.1986 9.91907 20.0808 5.80127 15 5.80127ZM15 7.40137C16.7441 7.40137 18.3518 8.00046 19.6334 8.99389C18.7082 10.1845 17.4342 11.1248 15.8114 11.8149C15.0303 10.3892 14.143 8.99389 13.1344 7.64404C13.7335 7.49237 14.3554 7.40137 15 7.40137ZM11.5723 8.22796C12.596 9.56265 13.4984 10.9428 14.2871 12.3533C12.4216 12.8993 10.1997 13.1799 7.62887 13.2027C8.15971 11.0262 9.62331 9.22139 11.5723 8.22796ZM7.40137 15C7.40137 14.9317 7.40895 14.871 7.40895 14.8028C10.3589 14.8028 12.9069 14.4615 15.0379 13.7866C15.2199 14.1506 15.3867 14.5146 15.5535 14.8862C12.96 15.6976 10.8291 17.3584 9.16072 19.8533C8.06113 18.5338 7.40137 16.8427 7.40137 15ZM15 22.5985C13.2406 22.5985 11.6253 21.9919 10.3362 20.9833C11.8453 18.6172 13.7714 17.0702 16.1602 16.365C16.8731 18.2229 17.3963 20.1263 17.73 22.0829C16.8806 22.409 15.9631 22.5985 15 22.5985ZM19.2163 21.3169C18.8827 19.5121 18.3897 17.7527 17.7452 16.0313C19.186 15.8265 20.7634 15.8796 22.5 16.183C22.1663 18.3215 20.9454 20.1643 19.2163 21.3169ZM17.1309 14.5146C16.9413 14.0824 16.7517 13.6501 16.5394 13.2254C18.3063 12.4595 19.732 11.4206 20.7937 10.0935C21.825 11.3144 22.4772 12.869 22.5758 14.5677C20.6041 14.2416 18.7841 14.2264 17.1309 14.5146Z" fill="#222221"/>
</g>
<defs>
<clipPath id="clip0_21_27">
<rect width="30" height="30" fill="white"/>
</clipPath>
</defs>
</svg>
