<svg width="30" height="30" viewBox="0 0 30 30" fill="none" xmlns="http://www.w3.org/2000/svg">
<g clip-path="url(#clip0_21_18)">
<path d="M29.4312 15C29.4312 7.02981 22.9701 0.568726 15 0.568726C7.02981 0.568726 0.568726 7.02981 0.568726 15C0.568726 22.9701 7.02981 29.4312 15 29.4312C22.9701 29.4312 29.4312 22.9701 29.4312 15Z" stroke="#222221" stroke-width="1.5" stroke-miterlimit="10"/>
<path d="M11.4434 11.7847H8.45557V21.4308H11.4434V11.7847Z" fill="#222221"/>
<path d="M9.93429 10.5182C10.9126 10.5182 11.7012 9.72193 11.7012 8.73608C11.7012 7.75024 10.9126 6.95398 9.93429 6.95398C8.95603 6.95398 8.16736 7.75024 8.16736 8.73608C8.16736 9.72193 8.95603 10.5182 9.93429 10.5182Z" fill="#222221"/>
<path d="M16.2209 16.365C16.2209 15.0076 16.8427 14.2038 18.0409 14.2038C19.1405 14.2038 19.6638 14.9773 19.6638 16.365V21.4308H22.6365V15.3185C22.6365 12.7326 21.1729 11.4813 19.1253 11.4813C17.0778 11.4813 16.2209 13.0738 16.2209 13.0738V11.7771H13.3544V21.4232H16.2209V16.3575V16.365Z" fill="#222221"/>
</g>
<defs>
<clipPath id="clip0_21_18">
<rect width="30" height="30" fill="white"/>
</clipPath>
</defs>
</svg>
