<svg width="30" height="30" viewBox="0 0 30 30" fill="none" xmlns="http://www.w3.org/2000/svg">
<g clip-path="url(#clip0_21_32)">
<path d="M15.0001 29.4312C7.02992 29.4312 0.568848 22.9701 0.568848 15C0.568848 7.0298 7.02992 0.568726 15.0001 0.568726C22.9703 0.568726 29.4313 7.0298 29.4313 15C29.4313 22.9701 22.9703 29.4312 15.0001 29.4312Z" stroke="#222221" stroke-width="1.5" stroke-miterlimit="10"/>
<path d="M15.0001 8.51614C17.1158 8.51614 17.3661 8.52372 18.2003 8.56164C18.9738 8.59955 19.3909 8.72847 19.6715 8.83464C20.043 8.97872 20.3009 9.15314 20.5815 9.42615C20.862 9.70673 21.0289 9.96457 21.173 10.3362C21.2791 10.6167 21.4081 11.0338 21.446 11.8073C21.4839 12.6415 21.4915 12.8918 21.4915 15.0075C21.4915 17.1233 21.4839 17.3736 21.446 18.2077C21.4081 18.9813 21.2791 19.3983 21.173 19.6789C21.0289 20.0505 20.8545 20.3083 20.5815 20.5889C20.3085 20.8619 20.043 21.0364 19.6715 21.1804C19.3909 21.2866 18.9738 21.4155 18.2003 21.4534C17.3661 21.4914 17.1158 21.4989 15.0001 21.4989C12.8843 21.4989 12.634 21.4914 11.7999 21.4534C11.0264 21.4155 10.6093 21.2866 10.3287 21.1804C9.95709 21.0364 9.69926 20.8619 9.41867 20.5889C9.13808 20.3083 8.97125 20.0505 8.82716 19.6789C8.721 19.3983 8.59208 18.9813 8.55416 18.2077C8.51624 17.3736 8.50866 17.1233 8.50866 15.0075C8.50866 12.8918 8.51624 12.6415 8.55416 11.8073C8.59208 11.0338 8.721 10.6167 8.82716 10.3362C8.97125 9.96457 9.14567 9.70673 9.41867 9.42615C9.69926 9.14556 9.95709 8.97872 10.3287 8.83464C10.6093 8.72847 11.0264 8.59955 11.7999 8.56164C12.634 8.52372 12.8843 8.51614 15.0001 8.51614ZM15.0001 7.09045C12.854 7.09045 12.581 7.09804 11.7392 7.13595C10.8974 7.17387 10.3211 7.31037 9.82059 7.50754C9.29734 7.71229 8.8575 7.97771 8.41766 8.41755C7.97782 8.85739 7.70482 9.29723 7.50765 9.82048C7.31048 10.321 7.18156 10.8973 7.14365 11.7391C7.10573 12.5808 7.09814 12.8539 7.09814 15C7.09814 17.1461 7.10573 17.4191 7.14365 18.2608C7.18156 19.1026 7.31806 19.6789 7.50765 20.1794C7.7124 20.7027 7.97782 21.1425 8.41766 21.5824C8.8575 22.0222 9.29734 22.2952 9.82059 22.4924C10.3211 22.6895 10.8974 22.8185 11.7392 22.864C12.581 22.9019 12.854 22.9095 15.0001 22.9095C17.1462 22.9095 17.4192 22.9019 18.2609 22.864C19.1027 22.826 19.679 22.6895 20.1795 22.4924C20.7028 22.2876 21.1426 22.0222 21.5825 21.5824C22.0223 21.1425 22.2953 20.7027 22.4925 20.1794C22.6896 19.6789 22.8186 19.1026 22.8641 18.2608C22.902 17.4191 22.9096 17.1461 22.9096 15C22.9096 12.8539 22.902 12.5808 22.8641 11.7391C22.8262 10.8973 22.6896 10.321 22.4925 9.82048C22.2877 9.29723 22.0223 8.85739 21.5825 8.41755C21.1426 7.97771 20.7028 7.70471 20.1795 7.50754C19.679 7.31037 19.1027 7.18145 18.2609 7.13595C17.4192 7.09804 17.1462 7.09045 15.0001 7.09045Z" fill="#222221"/>
<path d="M15 10.9353C12.7553 10.9353 10.9353 12.7553 10.9353 15C10.9353 17.2447 12.7553 19.0647 15 19.0647C17.2447 19.0647 19.0647 17.2447 19.0647 15C19.0647 12.7553 17.2447 10.9353 15 10.9353ZM15 17.639C13.544 17.639 12.361 16.456 12.361 15C12.361 13.544 13.544 12.361 15 12.361C16.456 12.361 17.639 13.544 17.639 15C17.639 16.456 16.456 17.639 15 17.639Z" fill="#222221"/>
<path d="M20.172 10.7761C20.172 11.2993 19.7473 11.724 19.2241 11.724C18.7008 11.724 18.2761 11.2993 18.2761 10.7761C18.2761 10.2528 18.7008 9.82812 19.2241 9.82812C19.7473 9.82812 20.172 10.2528 20.172 10.7761Z" fill="#222221"/>
</g>
<defs>
<clipPath id="clip0_21_32">
<rect width="30" height="30" fill="white"/>
</clipPath>
</defs>
</svg>
